<svg xmlns="http://www.w3.org/2000/svg" viewBox="0 0 302.09 381">
  <path d="M287.09,381H15a15,15,0,0,1,0-30H287.09a15,15,0,0,1,0,30ZM248,20.47l-1.25,2.26c-.46.74-1,1.44-1.44,2.16s-.91,1.43-1.41,2.12l-1.57,2.06c-1,1.37-2.21,2.71-3.31,4.06s-2.35,2.77-3.51,4.15-2.47,2.87-3.7,4.44-2.46,3.13-3.61,4.92l-1.75,2.61c-.57.9-1.08,1.86-1.62,2.79s-1.09,1.88-1.57,2.86l-1.33,3c-.43,1-.92,2-1.29,3.05l-1,3.12-1,3.15-.71,3.16a100.15,100.15,0,0,0-1.94,12.69,95,95,0,0,0,0,13l.24,3.33.55,3.37.58,3.38c.23,1.12.56,2.23.85,3.36l.94,3.35c.37,1.09.79,2.16,1.18,3.24s.8,2.18,1.25,3.22l1.4,3c.94,2.09,1.94,3.84,2.93,5.73.51,1,1,1.76,1.45,2.61l1.44,2.53,1.31,2.29c.42.76.9,1.56,1.23,2.24.72,1.4,1.58,2.84,2.11,4.12l.92,2c.27.65.47,1.28.72,1.91s.5,1.25.72,1.88l.53,1.91c.17.64.4,1.25.53,1.9l.36,2,.4,2,.2,2.09c.4,2.71.3,5.77.44,8.71-.24,2.94-.22,6-.72,8.67l-.26,2.08-.48,1.93c-.15.65-.28,1.3-.41,2s-.41,1.23-.59,1.85l-.59,1.86c-.24.61-.53,1.22-.77,1.83s-.47,1.23-.76,1.86l-1,1.91c-.57,1.23-1.44,2.65-2.17,4-.35.66-.84,1.45-1.28,2.2l-1.35,2.26-1.48,2.51c-.5.85-1,1.64-1.5,2.6-1,1.89-2.07,3.62-3,5.74l-1.46,3.06c-.46,1.05-.87,2.17-1.3,3.25s-.86,2.17-1.24,3.28l-1,3.41c-.3,1.14-.66,2.27-.91,3.41s-.42,2.29-.62,3.44l-.58,3.42-.27,3.38a94.89,94.89,0,0,0-.06,13.16,97.89,97.89,0,0,0,1.93,12.89l.73,3.22,1,3.22,1.05,3.19c.39,1.05.88,2.07,1.32,3.11l1.37,3.06c.51,1,1.08,1.95,1.61,2.91s1.07,1.94,1.65,2.85l1.81,2.65c1.19,1.81,2.45,3.33,3.71,4.94s2.49,3,3.76,4.44c5,5.55,9.33,10.39,12.8,16.37.43.74.93,1.48,1.32,2.25l1.13,2.37,1.19,2.41,1,2.53c1.47,3.38,2.34,7,3.62,10.66a59.11,59.11,0,0,0,1.78-23.49c-.13-1-.29-2-.45-3.06s-.46-2-.7-3-.48-2-.77-3-.64-1.94-1-2.91c-.65-2-1.42-3.79-2.16-5.67s-1.51-3.55-2.29-5.33-1.5-3.37-2.13-5-1.34-3.18-1.8-4.68l-.77-2.26c-.24-.75-.39-1.49-.59-2.23s-.4-1.46-.57-2.19l-.37-2.2a72.41,72.41,0,0,1-.39-18.07,63.68,63.68,0,0,1,4-16.9c2-5,4.95-9.45,9.15-15.52l1.62-2.42c.55-.82,1.07-1.58,1.65-2.52,1.13-1.82,2.26-3.52,3.33-5.6l1.62-3c.52-1,1-2.14,1.48-3.22s1-2.16,1.41-3.26l1.16-3.41c.37-1.14.79-2.28,1.09-3.43l.82-3.46.76-3.47.46-3.43a91.39,91.39,0,0,0-.28-26.83l-.52-3.41-.83-3.44-.88-3.42c-.32-1.14-.76-2.26-1.15-3.38l-1.21-3.36c-.46-1.09-1-2.15-1.45-3.22s-1-2.15-1.53-3.16l-1.66-3c-1.11-2-2.25-3.71-3.4-5.51-.59-.92-1.13-1.67-1.69-2.47L255.53,116c-4.28-6-7.4-10.53-9.55-15.66a62.39,62.39,0,0,1-4.23-17.31,71,71,0,0,1,.48-18.53l.41-2.26.61-2.25c.21-.75.38-1.52.62-2.28l.83-2.29c.49-1.54,1.24-3.13,1.9-4.71s1.46-3.3,2.19-5c3.18-6.75,6.49-14.56,7.65-22.56a62.17,62.17,0,0,0-1-23.23C253.56,7.39,251.34,14.38,248,20.47Zm-90.5.6-1.24,2.26c-.46.74-1,1.45-1.44,2.16s-.91,1.43-1.41,2.12l-1.57,2.06c-1,1.37-2.21,2.71-3.31,4.06s-2.35,2.77-3.52,4.15-2.46,2.87-3.7,4.44-2.45,3.13-3.6,4.92l-1.75,2.62c-.57.89-1.08,1.85-1.62,2.79s-1.09,1.88-1.57,2.85l-1.33,3c-.43,1-.92,2-1.29,3l-1,3.12-1,3.15L127.39,71a99.73,99.73,0,0,0-1.94,12.68,95,95,0,0,0,0,13l.23,3.33.56,3.37.58,3.38c.23,1.12.56,2.24.85,3.36l.94,3.35c.37,1.1.79,2.16,1.18,3.25s.8,2.18,1.25,3.21l1.4,3c.94,2.1,1.94,3.85,2.93,5.73.5,1,1,1.76,1.45,2.61l1.44,2.53,1.31,2.3c.42.75.89,1.55,1.23,2.23.72,1.4,1.58,2.84,2.11,4.12l.92,2c.27.65.47,1.28.71,1.91s.51,1.26.73,1.89l.53,1.9c.17.64.4,1.25.53,1.9l.35,2,.41,2,.2,2.1c.4,2.7.3,5.77.44,8.71-.24,2.94-.22,6-.72,8.67l-.26,2.07-.48,1.93c-.15.65-.28,1.3-.41,2s-.41,1.23-.6,1.86l-.58,1.85c-.24.62-.53,1.22-.77,1.83s-.47,1.23-.76,1.86l-1,1.91c-.57,1.23-1.44,2.65-2.17,4-.35.66-.84,1.45-1.28,2.2l-1.35,2.26-1.48,2.51c-.5.85-1,1.64-1.5,2.6-1,1.89-2.07,3.62-3,5.74l-1.46,3.06c-.46,1.05-.87,2.17-1.3,3.25s-.86,2.17-1.24,3.29l-1,3.4c-.3,1.14-.66,2.27-.91,3.41s-.42,2.29-.62,3.44l-.58,3.43-.27,3.37a94.9,94.9,0,0,0-.06,13.16,98.29,98.29,0,0,0,1.93,12.9l.73,3.21,1,3.22,1,3.19c.39,1.05.88,2.08,1.32,3.11l1.37,3.06c.51,1,1.07,1.95,1.61,2.91s1.07,1.94,1.65,2.85l1.81,2.65c1.18,1.81,2.45,3.34,3.71,4.94s2.49,3,3.76,4.44c5,5.56,9.33,10.39,12.8,16.37.43.75.92,1.48,1.32,2.25l1.13,2.37,1.19,2.41,1,2.53c1.47,3.38,2.34,7,3.62,10.66a59.08,59.08,0,0,0,1.78-23.48c-.13-1-.29-2-.45-3.07s-.47-2-.7-3-.48-2-.77-3-.64-1.94-1-2.91c-.64-2-1.41-3.78-2.15-5.67s-1.52-3.55-2.29-5.33-1.5-3.36-2.14-5-1.34-3.17-1.79-4.68l-.77-2.26c-.24-.75-.39-1.49-.59-2.23s-.4-1.46-.57-2.19l-.37-2.2a72.38,72.38,0,0,1-.39-18.07,63.77,63.77,0,0,1,4-16.9c2.05-5,4.95-9.45,9.15-15.51l1.62-2.43c.55-.82,1.07-1.58,1.65-2.52,1.13-1.82,2.26-3.51,3.33-5.6l1.62-3c.52-1,1-2.14,1.48-3.21s1-2.16,1.41-3.27l1.16-3.41c.37-1.14.78-2.27,1.09-3.42l.82-3.47.76-3.47.46-3.42a91.45,91.45,0,0,0-.28-26.84l-.52-3.4-.83-3.45-.88-3.42c-.32-1.14-.76-2.26-1.15-3.38l-1.22-3.36c-.45-1.09-1-2.15-1.44-3.22s-1-2.15-1.53-3.16l-1.66-3c-1.11-2-2.25-3.71-3.4-5.51-.59-.92-1.13-1.66-1.69-2.47L165,116.64c-4.29-6-7.41-10.52-9.55-15.66a62.39,62.39,0,0,1-4.23-17.31,71,71,0,0,1,.48-18.53l.41-2.26.61-2.25c.21-.75.38-1.51.62-2.28l.82-2.29c.5-1.53,1.25-3.13,1.91-4.71s1.46-3.3,2.19-5c3.18-6.76,6.49-14.57,7.65-22.56a62.43,62.43,0,0,0-1-23.24C163.07,8,160.85,15,157.48,21.07ZM67,21.67l-1.24,2.27c-.46.73-1,1.44-1.44,2.15s-.91,1.43-1.42,2.13l-1.57,2.06c-1,1.36-2.2,2.7-3.3,4s-2.35,2.77-3.52,4.15S52,41.35,50.8,42.93s-2.45,3.13-3.6,4.91l-1.76,2.62c-.56.89-1.07,1.85-1.61,2.79s-1.09,1.88-1.57,2.85l-1.34,3c-.42,1-.91,2-1.28,3l-1,3.12-1,3.16-.72,3.16A101.38,101.38,0,0,0,35,84.28a95,95,0,0,0,0,13l.23,3.32.55,3.37.59,3.38c.22,1.13.56,2.24.85,3.36l.94,3.35c.37,1.1.78,2.16,1.18,3.25s.8,2.18,1.25,3.21l1.4,3c.94,2.09,1.94,3.84,2.93,5.72.5,1,1,1.76,1.45,2.61l1.44,2.53,1.3,2.3c.43.76.9,1.55,1.24,2.23.71,1.4,1.57,2.84,2.11,4.12l.91,2c.28.65.48,1.28.72,1.91s.51,1.26.73,1.89l.53,1.9c.16.64.39,1.25.53,1.9l.35,2,.41,2,.2,2.1c.4,2.71.3,5.77.43,8.71a86.9,86.9,0,0,1-.71,8.67l-.26,2.07L55.78,180c-.15.64-.28,1.29-.42,1.94s-.4,1.23-.59,1.86l-.58,1.85c-.24.62-.53,1.22-.77,1.84s-.47,1.22-.76,1.85l-1,1.91c-.57,1.24-1.44,2.66-2.17,4-.35.66-.84,1.46-1.28,2.2l-1.35,2.26-1.48,2.51c-.5.85-1,1.64-1.5,2.61-1,1.88-2.07,3.62-3,5.74l-1.45,3c-.46,1.05-.87,2.17-1.31,3.25s-.86,2.18-1.23,3.29l-1,3.41c-.3,1.13-.66,2.26-.91,3.4s-.43,2.29-.62,3.44l-.58,3.43-.27,3.37a96.51,96.51,0,0,0-.07,13.16,100,100,0,0,0,1.94,12.9l.73,3.22,1,3.22,1.05,3.18c.39,1.05.88,2.08,1.32,3.11l1.37,3.07c.51,1,1.07,1.94,1.61,2.91s1.07,1.93,1.65,2.84l1.8,2.65c1.19,1.81,2.46,3.34,3.72,4.94s2.49,3,3.76,4.44c5,5.56,9.33,10.39,12.79,16.37.44.75.93,1.48,1.33,2.25l1.13,2.37,1.19,2.42,1,2.52c1.47,3.38,2.34,7,3.62,10.66A59.08,59.08,0,0,0,76.23,310c-.13-1-.29-2-.45-3.06s-.47-2-.71-3-.47-2-.77-3-.63-1.94-1-2.91c-.64-2-1.42-3.78-2.15-5.66s-1.52-3.56-2.29-5.34-1.51-3.36-2.14-5-1.34-3.17-1.79-4.68l-.77-2.26c-.24-.75-.39-1.49-.6-2.22s-.4-1.46-.56-2.2l-.38-2.19a73,73,0,0,1-.38-18.08,63.39,63.39,0,0,1,4-16.9c2-5,4.95-9.45,9.15-15.51L77,215.58c.54-.82,1.07-1.57,1.65-2.51,1.13-1.83,2.26-3.52,3.33-5.6l1.62-3c.52-1,1-2.14,1.48-3.21s1-2.16,1.41-3.27l1.16-3.41c.36-1.14.78-2.27,1.09-3.42l.82-3.46.76-3.48.45-3.42a99.76,99.76,0,0,0,.86-13.44A99.84,99.84,0,0,0,90.53,154l-.52-3.4-.83-3.44-.88-3.43c-.33-1.14-.77-2.26-1.15-3.38l-1.22-3.36c-.45-1.09-1-2.15-1.45-3.22s-1-2.14-1.52-3.16l-1.66-3c-1.11-2-2.25-3.71-3.4-5.5-.59-.93-1.13-1.67-1.69-2.48l-1.66-2.39c-4.29-6-7.41-10.52-9.55-15.65a61.87,61.87,0,0,1-4.23-17.31,71.06,71.06,0,0,1,.48-18.54l.41-2.26.6-2.24c.22-.76.38-1.52.63-2.28l.82-2.3C64.2,55.13,65,53.54,65.62,52s1.46-3.3,2.19-5c3.18-6.76,6.48-14.57,7.65-22.56a62.44,62.44,0,0,0-1-23.24C72.58,8.59,70.36,15.59,67,21.67Z" fill="#f07e0f" opacity="0.2"/>
</svg>
