<svg xmlns="http://www.w3.org/2000/svg" viewBox="0 0 355.5 399.95">
  <title>snowflake</title>
  <path d="M169.35,350.24V334.41c-10.2,8.23-19.49,15.6-28.64,23.13-4.48,3.69-9.22,6.61-13.8,1s-.68-9.71,3.8-13.32c12.87-10.34,25.67-20.76,38.65-31.28v-20c-5.08,4-9.33,7.37-13.52,10.76q-14.31,11.56-28.57,23.17c-4,3.27-8.35,4.22-12-.05-4-4.6-2.22-8.88,2.1-12.38q26.08-21.12,52.33-42.32c0-15.14,0-30,0-45,0-6,.58-12,8.26-12,7.27.07,7.68,5.86,7.64,11.58-.09,14.92,0,29.84,0,45.1q23.92,19.37,47.8,38.72c1.86,1.51,4.64,2.69,5.36,4.64,1.31,3.49,3,8.29,1.61,11-2.45,4.77-7.49,4.32-11.65,1-11.84-9.52-23.62-19.11-35.44-28.66-2-1.64-4.13-3.18-7.11-5.47V313.9c12.14,9.86,24.91,20.31,37.78,30.64,4.6,3.69,9.45,7.67,4.72,13.78-5.23,6.74-10.29,2.11-15-1.66-8.86-7.18-17.73-14.33-27.59-22.3v15.92c7.53,6.07,15.56,12.64,23.69,19.08,4.37,3.47,7.61,7.54,3.57,12.81-4.43,5.76-9.24,3.23-13.74-.6-4-3.42-8.22-6.65-14-11.34,0,7.75-.08,13.71,0,19.66.09,5.41-1.34,9.94-7.56,10.05-6.63.12-8.32-4.62-8.32-10.3v-19c-6.12,4.84-10.85,8.55-15.54,12.31-4.18,3.34-8.41,3.76-11.9-.64s-1.94-8.49,2.1-11.8C152.62,363.77,160.91,357.08,169.35,350.24Zm.33-177.85c0,5.79.94,11.33,8.08,11.36,7.34,0,7.86-5.62,7.82-11.37-.09-15.16,0-30.32,0-45.3,17.84-14.46,35.23-28.56,52.63-42.65,4.37-3.54,6-7.85,2-12.37-3.66-4.18-8-3.18-12.07.09Q212,85.26,195.87,98.35c-3,2.4-6,4.71-10,7.84V86.26c11.8-9.56,24-19.41,36.17-29.36,4.8-3.94,12.33-7.83,6.6-15.21-6.28-8.1-11.74-.74-16.71,3.11-8.49,6.58-16.73,13.48-26.16,21.11V50c8.15-6.57,16.42-13.27,24.73-19.92,4.23-3.38,6.65-7.5,2.91-12.32-4.07-5.27-8.74-3.56-13.16.13s-8.8,7.12-14.61,11.79c0-8.08-.08-13.9,0-19.71.09-5.46-1.55-9.85-7.72-9.93s-8,4.32-8.1,9.72c-.07,6,0,12,0,19.72-5.93-4.73-10.28-8.12-14.53-11.62-4.47-3.69-9.07-5.23-13.11.13-3.8,5-1,8.9,3.12,12.23,8.1,6.5,16.14,13.06,24.05,19.47V65.48C158.62,56.82,148.94,49,139.29,41.2c-4.37-3.55-8.88-4.32-12.5.57s-1,8.92,3.16,12.28C143.22,64.74,156.44,75.48,169,85.67v20.18C155,94.48,141.85,84,128.85,73.37c-4.54-3.72-9.33-6.38-13.8-.74s-.47,9.67,4,13.26c16.82,13.52,33.57,27.13,50.64,40.94C169.69,142.54,169.72,157.46,169.68,172.39ZM24.88,230c-5.07-2-9.08-1-11.19,4.08-2.21,5.37.78,8.59,5.51,10.57,3.68,1.54,7.43,2.91,11.15,4.36l25.91,10.1L42.64,267c-10-3.78-19.94-7.43-29.79-11.38-5.22-2.08-9.63-1.87-12,3.72-2.48,5.84,1.13,8.92,6.09,10.92,5.54,2.22,11.09,4.42,17.78,7.08C18.44,281,13.45,284,8.36,286.85s-8.17,6.78-4.84,12.32c3.13,5.22,7.94,4.21,12.59,1.51,5.07-2.94,10.21-5.76,16.46-9.28-1.11,8.36-2.41,14.92-2.64,21.5a9,9,0,0,0,3.92,6.94c2.06,1.12,6.36,1,7.89-.5,2.23-2.15,3.44-5.84,4.06-9.07,1.9-9.9,3.31-19.88,4.85-29.46l13.41-7.67c-.45,3.95-.68,6.57-1.07,9.16-1.52,10-3.05,20-4.65,30-.86,5.31.91,9.3,6.34,10.14s8.36-2.4,9.1-7.72c.29-2.11.76-4.19,1.09-6.3,2.42-15.21,4.83-30.42,7.26-45.79l17.39-9.57c-2.89,18.18-5.47,34.43-8,50.69-.9,5.7-2,12,5.81,13.33,7.66,1.29,8.93-4.5,9.85-10.52,3.24-21.29,6.73-42.55,10.16-64,13.26-7.77,26.28-15.55,39.45-23.05,5.32-3,8.91-6.91,5.4-12.79-3.37-5.62-8.42-4-13.26-1.12-13.09,7.68-26.27,15.2-39.6,22.89-7.51-2.85-15-5.66-22.4-8.5C73,214.63,59.17,208.9,45,204.28c-2.77-.91-6.94,2.48-10.47,3.88,1.56,3.46,2.66,7.27,4.87,10.26,1.2,1.62,4.3,1.81,6.54,2.68L91.4,238.76l-17.34,10C57.18,242.36,41,236.25,24.88,230Zm253.53-48.36c10.19,3.92,20.4,7.81,30.56,11.8,5.18,2,9.86,1.66,11.95-4s-1.23-9-6.5-10.79c-2-.68-3.95-1.6-5.94-2.37l-44.25-17.14,17-10c3.27,1.17,6.27,2.18,9.23,3.32q19.38,7.47,38.73,15c5.24,2,10.37,2.48,12.68-3.77,2.09-5.66-1.26-9-6.54-10.76-2-.66-3.95-1.59-5.94-2.36L299.21,139l13.66-8c10.6,4,20.65,8.4,31.09,11.45,3,.87,8.73-1.07,10.36-3.58,2.85-4.36.24-8.65-4.82-10.67-5.88-2.35-11.8-4.63-18.73-7.34,6.18-3.65,11.39-6.8,16.68-9.83,4.65-2.68,7.91-6.24,4.86-11.65-3.23-5.75-8.12-4.83-13.08-1.92s-10.26,5.78-16.58,9.32c1.14-7.2,1.85-12.72,2.91-18.17,1.15-5.88-.35-10.6-6.58-11.46-5.88-.82-8.25,3.35-9.06,8.82-1.55,10.51-3.43,21-5.17,31.4L291,125.07c2.11-13.22,4-25.3,6-37.35,1-5.93.23-11.34-6.7-12.14-6.45-.75-8.23,4.2-9.07,9.77-2.54,16.82-5.35,33.59-8,50.13l-17.35,9.68c2.73-17.09,5.41-32.27,7.48-47.54.86-6.31,4.9-15.42-5.79-16.7-9.71-1.15-8.73,8.08-9.76,14.31-3.37,20.2-6.51,40.43-9.68,60.3l-39.31,23c-4.62,2.7-9.06,5.86-5.74,12,3.46,6.37,8.46,4.78,13.62,1.74,13.08-7.68,26.28-15.18,39.67-22.9Zm-29.65,126.3c.89,5.73,3,10.15,9.59,8.92s6.84-6.14,5.91-11.78c-2.78-16.95-5.26-33.95-8.09-52.46l17.07,9.71c.6,3.06,1.19,5.66,1.6,8.28q3.36,21.31,6.61,42.64c.8,5.33,3,9.58,9,8.91,6.66-.74,7.55-5.74,6.72-11.35-.24-1.58-.6-3.15-.84-4.72-1.62-10.63-3.23-21.26-5.06-33.34L305,280.63c1.76,10.84,3.5,21.34,5.15,31.86.87,5.55,3.64,9.14,9.59,8,5.51-1,6.93-5.25,6.13-10.37-.94-6-1.93-12-3.08-19.2,5.82,3.28,10.71,5.87,15.43,8.73,4.92,3,10.13,5.38,13.88-.82,4.09-6.75-1.11-10.07-6.25-13-4.65-2.65-9.23-5.41-15.05-8.85,6.84-2.67,11.95-4.84,17.18-6.68,5.53-2,9.22-5.24,6.61-11.31-2.39-5.56-7.13-5.29-12.21-3.26-9.84,3.92-19.8,7.56-29.51,11.25l-13.14-7.7c3.58-1.58,5.88-2.7,8.26-3.63,9.68-3.78,19.6-7,28.92-11.53,2.65-1.28,5.13-6.31,4.78-9.28-.25-2.23-5-4.57-8.1-5.59-1.8-.58-4.43,1.34-6.67,2.19q-22.71,8.65-45.45,17.37l-17.22-10.14c17.19-6.66,33-12.89,48.87-18.89,5.53-2.08,10.29-4.93,7.78-11.52s-8-5.44-13.47-3.3c-20.31,7.93-40.68,15.69-61.07,23.53-13.43-7.71-26.62-15.2-39.72-22.86-5.17-3-10.22-4.5-13.66,1.82-3.32,6.1,1.14,9.25,5.78,11.94l39.53,22.9C241.82,264.31,245.38,286.11,248.76,307.94ZM107.2,94.15c-1-6.26-.68-14.61-9.86-13.17-9.83,1.54-6.45,9.89-5.51,16.22,2.28,15.45,4.75,30.88,7.41,48l-17.35-9.94c-2.8-17.38-5.55-33.93-8.08-50.51-.88-5.73-3.14-10.25-9.55-9.06s-7,6.06-6,11.84c2.11,12,3.75,24.09,5.78,37.52l-13.74-7.91C48.72,107,47.16,97,45.55,87.07c-.9-5.62-2.63-11.1-9.78-9.9-6.57,1.1-6.83,6.36-5.93,11.88.87,5.32,1.41,10.7,2.28,17.58C25.58,102.84,20.51,100,15.55,97c-4.79-2.91-9.42-3.2-12.39,2S3,108,7.8,110.75c5.29,3,10.48,6.14,16.8,9.86-6.57,2.63-11.88,4.85-17.26,6.87-5,1.89-8.87,4.79-6.74,10.64,2.22,6.14,7,6.24,12.51,4,9.84-3.94,19.79-7.64,29.51-11.37l13.67,8c-12.58,4.85-23.73,9.13-34.86,13.44-5.26,2-10.43,4.62-7.66,11.5s8.21,5.14,13.51,3.09c15.62-6,31.26-12,47-18l16.8,10.22-19.19,7.48c-10.66,4.16-21.36,8.26-32,12.51-4.85,2-8,6-4.95,10.53,1.7,2.54,6.74,3.42,10.42,3.85,2.34.27,5-1.66,7.43-2.61l56.38-21.58c13.44,7.76,26.39,15.15,39.25,22.7,5,3,10.24,5,13.73-1.28,3.41-6.16-.82-9.71-5.95-12.6-13-7.34-25.85-14.86-39.14-22.53C113.7,134.64,110.41,114.4,107.2,94.15Z" fill="#1aa2dd" opacity="0.1"/>
</svg>
