<svg xmlns="http://www.w3.org/2000/svg" viewBox="0 0 21.33 24">
  <path d="M10.16,21v-.95c-.61.49-1.17.93-1.72,1.39-.27.22-.55.39-.82.05s0-.58.22-.8l2.32-1.87v-1.2l-.81.64L7.64,19.67c-.24.2-.5.26-.72,0s-.14-.53.12-.74l3.14-2.54v-2.7c0-.36,0-.72.5-.72s.46.35.46.7c0,.89,0,1.79,0,2.7L14,18.7c.11.09.28.16.32.27s.19.5.1.67-.45.25-.7.05C13,19.12,12.3,18.55,11.6,18l-.43-.32v1.19c.73.59,1.49,1.22,2.27,1.83.27.23.56.47.28.83s-.62.13-.9-.1l-1.65-1.34v1c.45.36.93.76,1.42,1.14.26.21.45.46.21.77s-.55.2-.82,0-.5-.4-.84-.68c0,.46,0,.82,0,1.18s-.08.59-.46.6-.5-.28-.5-.62V22.24L9.25,23c-.25.2-.5.23-.71,0a.47.47,0,0,1,.12-.71Zm0-10.68c0,.35.06.68.49.69s.47-.34.47-.69c0-.91,0-1.82,0-2.71l3.16-2.56c.27-.22.36-.47.13-.75s-.49-.19-.73,0L11.75,5.9c-.17.15-.36.28-.6.47V5.18C11.86,4.6,12.6,4,13.32,3.41c.29-.23.74-.47.4-.91s-.7,0-1,.19c-.51.39-1,.81-1.57,1.27V3l1.48-1.2c.25-.2.4-.45.18-.74s-.53-.21-.79,0-.53.43-.88.71c0-.49,0-.84,0-1.18s-.09-.6-.46-.6-.49.26-.49.58V1.77l-.87-.7c-.27-.22-.55-.31-.79,0s-.06.53.19.73L10.16,3v1L8.36,2.47c-.26-.21-.53-.26-.75,0s-.06.53.19.73l2.34,1.9V6.35L7.73,4.4c-.27-.22-.56-.38-.83,0s0,.58.24.79l3,2.46ZM1.49,13.8a.46.46,0,0,0-.67.25c-.13.32.05.51.33.63l.67.26,1.56.61L2.56,16c-.6-.23-1.2-.44-1.79-.68-.31-.13-.58-.11-.72.22s.07.54.37.66l1.06.42c-.37.22-.67.4-1,.57S0,17.62.21,18s.48.26.76.09l1-.55c-.06.5-.14.89-.15,1.29a.51.51,0,0,0,.23.41.49.49,0,0,0,.47,0,1,1,0,0,0,.25-.54c.11-.6.2-1.19.29-1.77l.8-.46c0,.24,0,.39-.06.55-.09.6-.18,1.2-.28,1.8,0,.32.06.56.38.61s.5-.15.55-.46c0-.13,0-.26.06-.38.15-.92.29-1.83.44-2.75l1-.57c-.17,1.09-.33,2.06-.48,3-.06.34-.12.72.35.8s.53-.27.59-.63c.19-1.28.4-2.56.61-3.85.79-.46,1.58-.93,2.37-1.38.31-.18.53-.41.32-.77s-.51-.23-.8-.06L6.56,13.71,5.21,13.2c-.83-.32-1.66-.66-2.51-.94-.17-.06-.42.15-.63.23a3.23,3.23,0,0,0,.3.62c.07.09.25.11.39.16l2.72,1.06-1,.6Zm15.22-2.9,1.83.71c.31.12.59.1.72-.24s-.08-.54-.39-.65l-.36-.14-2.65-1,1-.6.56.2,2.32.9c.32.12.63.15.76-.23s-.07-.54-.39-.64L19.76,9,18,8.34l.82-.48c.64.24,1.24.5,1.87.69a.71.71,0,0,0,.62-.22c.17-.26,0-.52-.29-.64l-1.12-.44,1-.59c.28-.16.47-.37.29-.7s-.49-.29-.78-.11l-1,.56c.07-.44.11-.77.18-1.09s0-.64-.4-.69-.49.2-.54.53c-.1.63-.21,1.26-.31,1.88l-.83.47c.13-.8.24-1.52.36-2.25.06-.35,0-.68-.4-.72s-.49.25-.54.58c-.16,1-.32,2-.48,3l-1,.58c.17-1,.33-1.94.45-2.85,0-.38.3-.93-.34-1s-.53.48-.59.85c-.2,1.22-.39,2.43-.58,3.62l-2.36,1.38c-.28.16-.54.35-.34.72s.5.29.81.1l2.38-1.37Zm-1.78,7.58c.05.34.18.61.57.53s.41-.36.36-.7c-.17-1-.32-2-.49-3.15l1,.58c0,.19.07.34.09.5.14.85.27,1.7.4,2.56.05.32.18.57.54.53s.45-.34.4-.68a2.74,2.74,0,0,0,0-.28c-.09-.64-.19-1.28-.3-2l.82.47c.11.65.21,1.28.31,1.91.05.33.22.55.58.48s.41-.31.36-.62-.11-.72-.18-1.15l.93.52c.29.18.6.33.83-.05s-.07-.6-.38-.78l-.9-.53c.41-.16.72-.29,1-.4s.56-.31.4-.68-.43-.31-.73-.19L18.77,16,18,15.56l.49-.22c.58-.22,1.18-.42,1.74-.69a.67.67,0,0,0,.28-.56c0-.13-.29-.27-.48-.33s-.27.08-.4.13l-2.73,1-1-.61,2.93-1.13c.33-.13.62-.3.47-.69s-.48-.33-.81-.2c-1.22.48-2.44.94-3.67,1.41L12.4,12.34c-.31-.18-.61-.27-.82.11s.07.56.35.72l2.37,1.37ZM6.43,5.65c-.06-.38,0-.88-.59-.79s-.39.59-.33,1c.14.93.29,1.86.45,2.88l-1-.59c-.16-1-.33-2-.48-3,0-.35-.19-.62-.57-.55s-.42.37-.36.71c.12.72.22,1.45.34,2.25L3,7c-.1-.61-.19-1.21-.29-1.81,0-.33-.15-.66-.58-.59s-.41.38-.36.71.08.65.14,1.06l-1-.58c-.28-.17-.56-.19-.74.12s0,.54.28.71l1,.59-1,.41c-.3.11-.53.29-.4.64s.42.37.75.24c.59-.24,1.18-.46,1.77-.68l.82.48-2.09.81c-.32.12-.63.27-.46.69s.49.3.81.18L4.46,8.93l1,.62L4.31,10l-1.92.75c-.29.11-.48.35-.29.63s.4.2.62.23a1.22,1.22,0,0,0,.45-.16l3.38-1.29,2.36,1.36c.3.18.61.3.82-.08s-.05-.58-.36-.75L7,9.33C6.82,8.08,6.63,6.86,6.43,5.65Z"/>
</svg>
