<svg xmlns="http://www.w3.org/2000/svg" viewBox="0 0 19.03 24">
  <path d="M18.08,24H.94a.95.95,0,0,1,0-1.89H18.08a.95.95,0,1,1,0,1.89ZM15.62,1.29l-.08.14-.09.14-.09.13-.1.13c-.06.09-.14.17-.2.26l-.23.26-.23.28-.23.31-.11.16a1.62,1.62,0,0,1-.1.18l-.1.18L14,3.65a1.08,1.08,0,0,0-.08.19l-.07.2-.06.19,0,.2a7.36,7.36,0,0,0-.12.8,5.61,5.61,0,0,0,0,.82l0,.21,0,.21,0,.21a2.25,2.25,0,0,0,.05.22l.06.21a1.67,1.67,0,0,0,.08.2c0,.07,0,.14.07.2L14,7.7c.06.14.13.25.19.37l.09.16.09.16.08.14.08.14c0,.09.1.18.13.26l.06.13.05.12,0,.12,0,.12s0,.08,0,.12l0,.12,0,.12v.14c0,.17,0,.36,0,.55s0,.37,0,.54l0,.13,0,.12s0,.09,0,.13,0,.07,0,.11l0,.12s0,.08,0,.12l0,.11-.06.12-.14.26-.08.14-.09.14-.09.16-.09.16c-.07.12-.13.23-.19.36l-.1.19a1.8,1.8,0,0,1-.08.21,1.8,1.8,0,0,1-.08.21l-.06.21a1.6,1.6,0,0,0-.05.21,2.07,2.07,0,0,0,0,.22l0,.22,0,.21a5.75,5.75,0,0,0,0,.83,5.66,5.66,0,0,0,.12.81l0,.2.06.21.07.2a1.54,1.54,0,0,0,.08.19l.09.2a1.62,1.62,0,0,0,.1.18l.1.18.12.17a3.55,3.55,0,0,0,.23.31l.24.28a6.35,6.35,0,0,1,.8,1l.09.14.07.15.07.15.06.16c.09.21.15.44.23.67a3.64,3.64,0,0,0,.11-1.48l0-.19c0-.06,0-.13,0-.19s0-.13-.05-.19L16,18.7a3.84,3.84,0,0,0-.14-.36c0-.12-.09-.22-.14-.34l-.13-.31c0-.1-.09-.2-.12-.29l-.05-.15,0-.14a.65.65,0,0,1,0-.13l0-.14a4.33,4.33,0,0,1,0-1.14,4.67,4.67,0,0,1,.25-1.07,5.6,5.6,0,0,1,.58-1l.1-.16.11-.15.21-.36.1-.19.09-.2.09-.2.07-.22A1.72,1.72,0,0,0,17,12l.05-.22.05-.22,0-.22a4.79,4.79,0,0,0,.05-.84,5,5,0,0,0-.07-.85l0-.21L17,9.19,17,9c0-.07-.05-.14-.07-.21l-.08-.21a1.21,1.21,0,0,0-.09-.2l-.09-.2L16.52,8c-.07-.13-.14-.23-.21-.34l-.11-.16-.1-.15a5.33,5.33,0,0,1-.61-1,4.25,4.25,0,0,1-.26-1.09,4.07,4.07,0,0,1,0-1.16l0-.15,0-.14a.74.74,0,0,0,0-.14l.05-.15c0-.09.08-.19.12-.29a3.09,3.09,0,0,0,.14-.32,5,5,0,0,0,.48-1.42A4,4,0,0,0,16.09,0,5.46,5.46,0,0,1,15.62,1.29Zm-5.7,0-.08.14-.09.14-.09.13-.1.13a2.52,2.52,0,0,1-.21.25,2.61,2.61,0,0,1-.22.27l-.23.28c-.08.1-.15.19-.23.31l-.11.16a1.62,1.62,0,0,1-.1.18c0,.06-.07.11-.1.18l-.08.19a1.08,1.08,0,0,0-.08.19l-.07.19-.06.2L8,4.47a7.36,7.36,0,0,0-.12.8,5.61,5.61,0,0,0,0,.82l0,.21,0,.21,0,.21a1.6,1.6,0,0,0,0,.21l.06.21a1.8,1.8,0,0,0,.08.21c0,.07.05.14.07.2l.09.19c.06.13.12.24.19.36l.09.17.09.16.08.14.08.14c0,.09.1.18.13.26l.06.13,0,.12s0,.07,0,.11l0,.12s0,.08,0,.12l0,.13,0,.12V10c0,.17,0,.36,0,.54s0,.38-.05.55l0,.13,0,.12s0,.08,0,.12,0,.08,0,.12l0,.12s0,.08,0,.11L9,11.89,9,12l-.14.25a.64.64,0,0,1-.08.14l-.09.15-.09.15-.09.17c-.07.12-.13.23-.19.36l-.1.19-.08.21a1.67,1.67,0,0,1-.08.2L8,14.05a1.6,1.6,0,0,0,0,.21,1.7,1.7,0,0,0,0,.22l0,.22,0,.21a5.75,5.75,0,0,0,0,.83,5.87,5.87,0,0,0,.12.81l.05.2L8,17l.07.21a1.54,1.54,0,0,0,.08.19l.09.19a1.14,1.14,0,0,0,.1.19,1.62,1.62,0,0,0,.1.18l.11.16c.08.12.16.21.24.31l.24.28a6.42,6.42,0,0,1,.8,1l.09.14L10,20l.07.15.06.16c.09.21.15.44.23.67a3.66,3.66,0,0,0,.11-1.48l0-.19c0-.07,0-.13,0-.19s0-.13,0-.19l-.06-.19c0-.12-.09-.23-.14-.35A3.45,3.45,0,0,0,10,18c0-.1-.1-.21-.13-.31s-.09-.2-.12-.3l0-.14,0-.14a.57.57,0,0,1,0-.14l0-.13a4.33,4.33,0,0,1,0-1.14,4.55,4.55,0,0,1,.25-1.07,6,6,0,0,1,.58-1l.1-.15.11-.16c.07-.11.14-.22.21-.35l.1-.19.09-.2.09-.21.07-.21a1.42,1.42,0,0,0,.07-.22l.05-.22.05-.21,0-.22a4.91,4.91,0,0,0,.05-.85,4.84,4.84,0,0,0-.07-.84l0-.21,0-.22L11.26,9c0-.07,0-.14-.07-.21l-.08-.21L11,8.39l-.09-.2L10.82,8c-.07-.13-.14-.23-.21-.35L10.5,7.5l-.1-.15a5.67,5.67,0,0,1-.61-1,4.35,4.35,0,0,1-.26-1.09,4.15,4.15,0,0,1,0-1.17l0-.14,0-.14a1,1,0,0,0,0-.14l.05-.15c0-.1.08-.2.12-.3s.1-.2.14-.31a5,5,0,0,0,.48-1.42A4,4,0,0,0,10.39,0,5.81,5.81,0,0,1,9.92,1.33Zm-5.7,0-.08.14-.09.13L4,1.78l-.1.13-.21.25a1.78,1.78,0,0,1-.22.26c-.07.1-.15.18-.23.28L3,3l-.11.17-.1.17-.1.18-.08.19a1.67,1.67,0,0,0-.08.2l-.07.19-.06.2-.05.2a7.36,7.36,0,0,0-.12.8,5.61,5.61,0,0,0,0,.82l0,.2,0,.22,0,.21a1.6,1.6,0,0,0,0,.21l.06.21a1.8,1.8,0,0,0,.08.21c0,.06,0,.13.07.2l.09.19c.06.13.12.24.19.36l.09.17L3,8.46l.08.15.08.14c0,.09.1.18.13.26l.06.12a.56.56,0,0,1,0,.12.61.61,0,0,1,.05.12l0,.12,0,.12,0,.13,0,.12V10c0,.17,0,.37,0,.55s0,.38,0,.55l0,.13,0,.12s0,.08,0,.12,0,.08,0,.12l0,.12s0,.07,0,.11l-.05.12-.06.12-.14.25L3,12.44,3,12.58l-.09.16c0,.06-.06.1-.09.17a2.42,2.42,0,0,0-.19.36l-.1.19c0,.07,0,.14-.08.2l-.08.21-.06.22-.06.21,0,.22,0,.21,0,.22a5.61,5.61,0,0,0,0,.82,5.79,5.79,0,0,0,.12.82l0,.2.06.2.07.2a1.67,1.67,0,0,0,.08.2l.09.19.1.19a1,1,0,0,0,.1.17l.11.17c.08.12.16.21.24.31l.24.28a6.81,6.81,0,0,1,.8,1l.09.15.07.14.07.16.06.16c.09.21.15.44.23.67a3.66,3.66,0,0,0,.11-1.48l0-.19c0-.07,0-.13,0-.19s0-.13-.05-.19l-.06-.19a3.65,3.65,0,0,0-.14-.35,3.45,3.45,0,0,0-.14-.34c0-.11-.1-.21-.14-.31s-.08-.2-.11-.3l0-.14,0-.14a.74.74,0,0,1,0-.14l0-.14a4.31,4.31,0,0,1,0-1.14,4.12,4.12,0,0,1,.25-1.06,5.65,5.65,0,0,1,.58-1l.1-.15L5,13.42c.07-.11.14-.22.21-.35l.1-.19.09-.2.09-.21.07-.21c0-.08.05-.15.07-.22l0-.22.05-.22,0-.21a4.91,4.91,0,0,0,0-.85A4.84,4.84,0,0,0,5.7,9.7l0-.22,0-.21-.06-.22c0-.07,0-.14-.07-.21l-.08-.21-.09-.21-.09-.2L5.12,8c-.07-.13-.14-.24-.21-.35L4.8,7.54l-.1-.15a5.67,5.67,0,0,1-.61-1,4,4,0,0,1-.26-1.09,4.15,4.15,0,0,1,0-1.17l0-.14,0-.14a.83.83,0,0,0,0-.15l0-.14c0-.1.08-.2.12-.3s.1-.21.14-.31a5.06,5.06,0,0,0,.48-1.42A4,4,0,0,0,4.69.08,5.81,5.81,0,0,1,4.22,1.37Z"/>
</svg>
