<svg xmlns="http://www.w3.org/2000/svg" viewBox="0 0 176 194">
  <title>temperature</title>
  <g>
    <path d="M84,168a23,23,0,1,1-40.5-14.91V20a17,17,0,0,1,17-17h1a17,17,0,0,1,17,17V153.09A22.86,22.86,0,0,1,84,168Z" fill="#fff" stroke="#374348" stroke-linecap="round" stroke-linejoin="round" stroke-width="6"/>
    <path d="M69,168a8,8,0,1,1-12-6.93V87a4,4,0,0,1,8,0v74.07A8,8,0,0,1,69,168Z" fill="#d74040"/>
    <line x1="29" y1="133" x2="3" y2="133" fill="none" stroke="#374348" stroke-linecap="round" stroke-linejoin="round" stroke-width="6"/>
    <line x1="29" y1="117" x2="20" y2="117" fill="none" stroke="#374348" stroke-linecap="round" stroke-linejoin="round" stroke-width="6"/>
    <line x1="29" y1="101" x2="20" y2="101" fill="none" stroke="#374348" stroke-linecap="round" stroke-linejoin="round" stroke-width="6"/>
    <line x1="29" y1="69" x2="20" y2="69" fill="none" stroke="#374348" stroke-linecap="round" stroke-linejoin="round" stroke-width="6"/>
    <line x1="29" y1="52" x2="20" y2="52" fill="none" stroke="#374348" stroke-linecap="round" stroke-linejoin="round" stroke-width="6"/>
    <line x1="29" y1="85" x2="3" y2="85" fill="none" stroke="#374348" stroke-linecap="round" stroke-linejoin="round" stroke-width="6"/>
    <line x1="29" y1="37" x2="3" y2="37" fill="none" stroke="#374348" stroke-linecap="round" stroke-linejoin="round" stroke-width="6"/>
    <path d="M138,110.46a9.48,9.48,0,0,1-9.21,9.69H114.21a9.48,9.48,0,0,1-9.21-9.69V76.54a9.48,9.48,0,0,1,9.21-9.69h14.58A9.48,9.48,0,0,1,138,76.54" fill="none" stroke="#374348" stroke-linecap="round" stroke-linejoin="round" stroke-width="6"/>
    <circle cx="166" cy="69" r="7" fill="none" stroke="#374348" stroke-linecap="round" stroke-linejoin="round" stroke-width="6"/>
  </g>
</svg>
